<?xml version="1.0" standalone="no"?>
<!DOCTYPE svg PUBLIC "-//W3C//DTD SVG 20010904//EN"
 "http://www.w3.org/TR/2001/REC-SVG-20010904/DTD/svg10.dtd">
<svg version="1.0" xmlns="http://www.w3.org/2000/svg"
 width="941.000000pt" height="390.000000pt" viewBox="0 0 941.000000 390.000000"
 preserveAspectRatio="xMidYMid meet">

<g transform="translate(0.000000,390.000000) scale(0.100000,-0.100000)"
fill="#000000" stroke="none">
<path d="M0 1950 l0 -1950 4705 0 4705 0 0 1950 0 1950 -4705 0 -4705 0 0
-1950z m9385 0 l0 -1915 -4677 -3 -4677 -2 -3 272 c-3 263 -2 273 18 298 11
14 35 62 53 106 30 75 79 144 103 144 6 0 8 17 4 43 -13 88 -8 184 11 229 23
50 79 103 138 128 23 10 56 35 73 56 19 23 32 32 32 23 0 -22 39 -55 83 -69
20 -6 37 -18 37 -26 0 -8 5 -14 10 -14 6 0 10 10 10 23 0 33 45 162 74 211 34
58 116 132 179 161 28 14 57 25 63 25 13 0 24 22 24 48 0 9 5 35 12 57 l12 40
7 -49 c11 -71 13 -74 76 -101 69 -31 163 -100 163 -120 0 -8 5 -15 11 -15 13
0 8 142 -6 173 -6 14 -2 20 14 24 18 5 21 13 21 59 0 29 5 56 10 59 6 4 10
-14 10 -46 0 -35 6 -59 17 -71 13 -15 14 -23 5 -44 -13 -28 -16 -133 -4 -150
4 -6 15 -14 26 -17 16 -6 18 -14 12 -50 -3 -23 -9 -52 -12 -64 -4 -13 -2 -23
4 -23 5 0 13 11 16 25 4 14 12 25 19 25 8 0 24 12 38 26 13 15 49 38 79 51 62
28 69 36 70 78 1 29 1 29 23 -14 15 -31 35 -51 67 -69 103 -56 156 -108 192
-189 20 -45 21 -62 19 -259 -2 -199 -1 -212 18 -235 l20 -24 28 35 c15 19 52
58 82 87 l55 51 67 -59 c66 -59 76 -74 106 -174 8 -29 10 -30 73 -30 63 0 64
0 72 31 6 23 16 33 40 40 31 9 33 13 33 52 0 47 13 62 58 62 31 0 47 -28 47
-81 0 -26 3 -29 35 -29 l34 0 3 -132 3 -133 40 -3 c69 -4 70 -1 67 165 -3 107
1 169 12 222 19 88 85 228 132 278 39 41 41 46 17 40 -21 -4 -78 21 -68 31 3
4 30 7 59 7 l53 1 114 114 114 115 2 70 c1 39 2 78 3 88 0 9 5 17 10 17 6 0
10 -75 10 -205 l0 -205 25 -12 c25 -11 29 -32 7 -34 -7 -1 -17 -2 -22 -3 -7
-1 -9 -126 -8 -368 l3 -368 33 -3 c56 -6 60 4 56 141 -2 67 0 127 4 134 4 6
42 13 90 15 l82 4 0 -136 c0 -144 5 -160 47 -160 l23 0 0 240 0 240 35 0 c24
0 39 6 47 20 10 15 24 20 54 20 36 0 43 -3 48 -25 8 -31 26 -33 26 -2 0 12 3
61 6 110 6 81 8 88 33 100 17 8 27 22 29 40 3 25 7 27 48 27 42 0 44 -1 44
-30 0 -23 5 -31 25 -36 24 -6 25 -10 25 -81 0 -105 6 -113 85 -113 l65 0 0
-248 c0 -260 2 -272 45 -272 45 0 45 -7 45 597 0 329 4 573 9 573 5 0 12 -12
16 -27 3 -15 27 -82 52 -151 52 -142 54 -144 166 -140 l72 3 3 58 c3 50 6 57
23 57 19 0 20 -6 18 -81 -4 -94 7 -110 69 -104 20 3 52 2 70 -2 l32 -5 0 -194
0 -194 33 0 c62 0 65 10 66 203 l1 117 100 0 100 0 0 -354 c0 -386 -2 -374 56
-360 l24 6 0 174 0 174 83 1 c82 1 109 0 115 -6 2 -2 3 -78 3 -169 -2 -159 -1
-165 20 -176 16 -9 82 -9 117 -1 1 1 2 48 2 106 l0 104 58 3 57 3 3 113 3 112
59 0 60 0 1 -182 c1 -101 0 -193 -1 -205 -3 -40 18 -64 53 -61 l32 3 1 376 c1
274 4 381 13 398 7 12 28 29 47 37 41 17 42 29 9 74 -84 114 -66 243 47 317
36 24 52 28 113 28 62 0 78 -4 120 -30 62 -38 95 -98 95 -169 0 -55 -28 -126
-62 -163 -26 -27 -14 -46 38 -63 19 -7 39 -20 44 -30 6 -10 10 -159 10 -359 1
-384 -2 -371 75 -371 58 0 66 15 58 117 -4 66 -2 87 13 119 15 32 18 58 16
137 -2 63 3 120 12 156 9 35 15 111 16 197 1 76 5 193 9 259 4 66 9 198 10
294 1 103 6 180 12 187 7 8 10 137 9 368 0 289 2 361 14 383 10 21 15 92 20
278 4 138 11 295 16 350 5 55 9 166 9 248 -1 100 3 147 10 147 7 0 11 -35 11
-102 0 -57 3 -132 5 -168 8 -121 22 -501 25 -692 0 -5 7 -8 15 -8 13 0 15 -39
15 -295 l0 -295 25 0 24 0 3 -275 c3 -247 5 -275 20 -287 16 -12 18 -36 19
-228 0 -178 3 -218 16 -232 12 -14 15 -45 14 -171 -2 -147 -1 -156 19 -170 19
-13 21 -24 21 -127 1 -96 3 -114 20 -131 10 -10 19 -33 19 -50 0 -16 4 -28 9
-25 18 11 24 85 22 268 -1 142 1 189 11 197 7 6 23 19 36 29 21 16 23 24 23
142 0 78 5 133 12 147 17 32 217 158 232 147 6 -5 44 -30 83 -56 93 -62 102
-81 102 -212 l0 -104 35 -42 35 -42 0 -244 c0 -226 1 -244 18 -253 13 -7 23
-6 30 1 9 9 12 169 12 599 0 570 1 587 19 592 11 2 21 15 23 28 2 20 9 24 45
27 30 2 46 9 53 23 7 12 21 19 40 19 l29 0 0 82 c0 44 5 86 11 92 7 7 10 -2
11 -29 3 -145 2 -140 34 -143 16 -2 35 -12 43 -23 8 -12 25 -19 46 -19 29 0
34 -4 39 -29 5 -23 12 -30 34 -33 l28 -3 3 -569 c1 -413 5 -573 14 -583 7 -9
25 -13 47 -11 l36 3 5 820 5 819 183 151 c101 82 188 158 194 169 6 10 10 37
10 59 -1 40 24 104 35 93 3 -3 5 -104 5 -223 l-2 -218 -24 -3 c-26 -3 -53 -28
-42 -39 3 -4 12 -1 18 5 7 7 22 12 34 12 13 0 26 5 29 10 9 14 11 458 2 466
-4 4 -7 43 -7 86 0 50 -4 77 -10 73 -5 -3 -10 -40 -10 -81 0 -41 -4 -74 -10
-74 -17 0 -40 -58 -40 -104 0 -56 -1 -58 -211 -229 -92 -75 -169 -144 -173
-153 -3 -8 -6 -378 -6 -820 l0 -805 -27 3 -28 3 -5 574 c-5 615 -2 579 -53
595 -10 3 -15 11 -12 16 11 19 -16 40 -51 40 -23 0 -37 6 -44 20 -6 12 -21 20
-35 20 -24 0 -25 2 -25 75 0 60 -4 79 -19 94 -14 14 -18 32 -17 77 1 32 -3 60
-9 61 -5 1 -9 -4 -7 -11 1 -7 -4 -62 -12 -122 -8 -60 -13 -124 -12 -141 2 -28
-1 -33 -20 -33 -13 0 -29 -9 -36 -19 -10 -13 -28 -21 -58 -23 -40 -3 -45 -6
-48 -29 -2 -17 -11 -29 -23 -32 -19 -5 -19 -19 -19 -596 0 -387 -3 -591 -10
-591 -6 0 -10 88 -10 245 l0 245 -35 39 -35 38 0 107 c0 76 -4 115 -15 136 -8
16 -50 53 -91 82 -42 29 -84 58 -93 65 -13 10 -34 0 -126 -57 -141 -89 -144
-95 -144 -254 0 -103 -3 -122 -17 -131 -54 -31 -54 -32 -54 -235 0 -108 -4
-190 -9 -190 -16 0 -18 21 -14 127 4 95 3 103 -18 124 -22 22 -23 29 -20 167
2 122 0 147 -15 170 -15 22 -17 55 -18 244 -1 193 -3 219 -18 230 -16 12 -18
41 -20 288 l-3 275 -27 3 -28 3 0 290 c0 233 -3 291 -13 295 -11 4 -15 52 -21
207 -3 111 -8 213 -10 227 -2 14 -7 133 -11 265 -3 132 -8 248 -11 258 -4 12
-13 17 -27 15 -21 -3 -22 -8 -24 -153 -3 -152 -17 -352 -29 -415 -4 -19 -6
-127 -5 -240 1 -169 -1 -209 -13 -225 -13 -17 -15 -76 -16 -381 0 -215 -4
-364 -10 -370 -5 -5 -10 -83 -11 -174 -1 -91 -6 -217 -10 -280 -4 -63 -9 -185
-10 -270 -1 -86 -8 -179 -16 -210 -7 -30 -13 -102 -13 -161 0 -77 -4 -115 -15
-135 -11 -21 -15 -54 -14 -114 1 -47 1 -91 0 -97 -1 -15 -67 -18 -76 -3 -3 5
-6 156 -5 335 1 372 -1 381 -69 408 -22 9 -41 19 -41 21 0 3 15 28 33 57 29
48 32 59 32 134 0 72 -3 86 -27 123 -75 112 -252 135 -357 46 -98 -84 -108
-213 -25 -322 14 -18 24 -34 23 -35 -2 -1 -17 -9 -34 -17 -16 -9 -38 -31 -48
-50 -17 -32 -18 -63 -15 -397 3 -341 2 -363 -14 -363 -16 0 -18 18 -20 223
l-3 222 -82 3 -83 3 0 -116 0 -115 -60 0 -60 0 0 -104 0 -104 -30 -7 c-16 -4
-38 -4 -49 0 -18 5 -19 16 -18 172 0 150 -1 167 -18 179 -27 20 -202 15 -215
-6 -5 -8 -10 -88 -10 -176 0 -130 -3 -163 -14 -167 -8 -3 -17 -3 -20 0 -3 4
-6 162 -6 353 0 256 -3 349 -12 358 -14 14 -205 17 -226 3 -8 -4 -13 -14 -12
-22 1 -8 2 -78 1 -156 l-1 -143 -25 0 -25 0 -2 198 -3 197 -82 3 -83 3 0 85
c0 79 -2 85 -22 93 -44 16 -53 8 -56 -52 l-3 -57 -78 0 -79 0 -21 53 c-11 28
-36 96 -55 149 -18 54 -38 103 -43 110 -6 7 -14 23 -17 36 -4 12 -11 22 -16
22 -4 0 -9 -273 -10 -607 0 -341 -5 -612 -10 -617 -5 -5 -16 -6 -24 -3 -14 6
-16 39 -16 262 l0 255 -69 0 c-82 0 -81 -1 -81 110 0 74 -1 79 -23 82 -17 2
-23 11 -25 36 l-3 32 -65 0 -64 0 0 -30 c0 -23 -6 -33 -24 -40 -35 -13 -46
-40 -46 -115 l0 -66 -51 2 c-42 2 -54 -1 -67 -18 -10 -13 -31 -23 -52 -25
l-35 -3 -3 -238 c-2 -184 -5 -238 -15 -234 -8 2 -13 46 -17 148 l-5 144 -95 1
c-52 1 -101 -3 -107 -8 -9 -7 -12 -49 -11 -147 l2 -136 -27 -3 -27 -3 0 349
c0 341 0 350 20 355 38 10 37 72 -1 72 -11 0 -15 40 -19 210 l-5 210 -26 3
c-31 4 -34 -7 -38 -117 l-2 -71 -104 -104 -104 -105 -63 -3 c-57 -3 -63 -5
-66 -26 -3 -16 5 -27 26 -39 l28 -16 -42 -71 c-23 -39 -55 -107 -70 -151 -26
-74 -28 -94 -31 -250 -1 -93 -3 -176 -3 -182 0 -8 -14 -13 -35 -13 l-35 0 0
135 0 135 -35 0 c-32 0 -35 2 -35 31 0 67 -46 99 -105 75 -36 -15 -50 -44 -41
-81 5 -20 1 -24 -27 -30 -36 -8 -47 -20 -47 -53 0 -21 -4 -23 -52 -20 l-53 3
-7 42 c-10 62 -23 81 -104 158 -66 63 -74 75 -74 107 0 20 -4 40 -10 43 -6 4
-10 -12 -10 -39 0 -44 -4 -50 -79 -126 -46 -47 -82 -76 -86 -70 -4 6 -5 106
-3 223 l3 212 -28 57 c-35 71 -92 128 -178 178 -48 29 -70 48 -77 70 -6 16 -8
30 -5 30 3 0 -2 9 -12 20 -12 13 -15 27 -11 45 8 31 -1 65 -16 65 -5 0 -8 -6
-5 -12 5 -14 -9 -139 -18 -169 -4 -11 -23 -23 -46 -29 -22 -6 -58 -27 -80 -47
l-39 -35 0 40 c0 35 -3 41 -26 46 -25 7 -26 9 -21 69 3 34 8 77 12 95 6 24 3
36 -8 45 -15 12 -19 35 -33 200 -4 42 -10 77 -15 77 -5 0 -9 -36 -9 -79 0 -44
-4 -83 -10 -86 -5 -3 -10 -29 -10 -57 0 -41 -3 -51 -20 -55 -23 -6 -24 -10 -9
-67 6 -24 9 -53 7 -65 -3 -20 -6 -19 -56 19 -30 22 -71 45 -93 51 -50 16 -57
25 -63 83 -2 27 -9 53 -15 59 -6 6 -11 28 -11 49 0 21 -4 38 -10 38 -5 0 -10
-15 -10 -33 0 -19 -7 -56 -15 -83 -8 -27 -15 -61 -15 -76 0 -21 -6 -28 -30
-33 -42 -9 -139 -75 -187 -127 -50 -55 -69 -91 -99 -183 -20 -62 -25 -70 -45
-67 -58 7 -102 71 -94 137 6 47 -12 45 -20 -2 -14 -83 -41 -120 -108 -148 -44
-18 -113 -78 -132 -115 -24 -46 -36 -142 -26 -211 l8 -64 -38 -38 c-25 -26
-48 -64 -68 -118 -17 -45 -31 -85 -31 -90 0 -5 -4 -9 -10 -9 -5 0 -10 11 -10
25 0 14 0 743 0 1620 0 877 0 1597 0 1600 0 3 2105 4 4678 3 l4677 -3 0 -1915z"/>
<path d="M8539 2428 c-1 -29 -3 -66 -5 -83 -2 -16 -4 -117 -4 -223 -1 -208 2
-222 49 -222 15 0 32 -5 38 -11 7 -7 13 -7 17 -1 8 14 -14 30 -49 34 l-30 3
-5 155 c-6 189 -3 230 15 230 20 0 29 -20 27 -56 -4 -59 12 -77 175 -194 87
-62 168 -122 181 -133 l22 -20 0 -607 c0 -458 3 -609 12 -618 7 -7 38 -12 70
-12 44 0 59 4 67 17 5 10 14 68 20 128 14 133 17 157 36 305 8 63 15 132 15
152 0 20 5 60 11 88 10 49 12 51 42 48 36 -3 32 9 73 -215 26 -146 37 -184 48
-172 7 7 -65 381 -77 397 -5 6 -27 12 -48 12 -32 0 -41 -4 -48 -23 -5 -13 -27
-178 -48 -367 l-38 -344 -30 -6 c-17 -3 -41 -3 -55 0 l-25 6 -3 611 -2 612
-43 34 c-23 19 -106 80 -184 136 l-143 102 -1 52 c-1 29 -1 56 0 60 1 5 -12
14 -29 20 -30 11 -30 12 -30 84 0 83 -19 102 -21 21z"/>
<path d="M8380 1902 c0 -10 45 -32 65 -32 13 0 15 -96 15 -710 0 -691 0 -710
19 -720 11 -5 33 -10 50 -10 l31 0 0 645 0 645 24 0 c13 0 29 6 35 13 13 16 3
31 -13 18 -6 -5 -22 -11 -36 -13 l-25 -3 -3 -644 c-2 -580 -4 -642 -18 -637
-9 3 -22 6 -30 6 -12 0 -14 104 -14 710 l0 710 -22 9 c-43 16 -78 21 -78 13z"/>
</g>
</svg>
